{"title":"Fifty Shades of Grey (2015) CamRip [RUS]","uid":11701669,"size":1479170048,"categoryP":"video","categoryS":"movies","magnet":"?xt=urn:btih:9b3c826daa8e67455764fcd8094e8869ac7e0da2&amp;dn=Fifty+Shades+of+Grey+%282015%29+CamRip+%5BRUS%5D&amp;tr=udp%3A%2F%2Ftracker.openbittorrent.com%3A80&amp;tr=udp%3A%2F%2Fopen.demonii.com%3A1337&amp;tr=udp%3A%2F%2Ftracker.coppersurfer.tk%3A6969&amp;tr=udp%3A%2F%2Fexodus.desync.com%3A6969","seeders":9,"leechers":1,"uploader":"yfjfrj","files":1,"time":1423938421,"description":"ATTENTION!!! RUSSIAN AUDIO ONLY!!!!\n\n\nFormat : AVI\nFormat/Info : Audio Video Interleave\nFile size : 1.38 GiB\nDuration : 1h 57mn\nOverall bit rate : 1 675 Kbps\nWriting application : VirtualDubMod 1.5.10.3 | (build 2550/release)\n\nVideo\nID : 0\nFormat : MPEG-4 Visual\nFormat profile : Advanced Simple@L5\nFormat settings, BVOP : 3\nFormat settings, QPel : No\nFormat settings, GMC : No warppoints\nFormat settings, Matrix : Custom\nCodec ID : XVID\nCodec ID/Hint : XviD\nDuration : 1h 57mn\nBit rate : 1 407 Kbps\nWidth : 720 pixels\nHeight : 256 pixels\nDisplay aspect ratio : 2.813\nFrame rate : 29.970 fps\nColor space : YUV\nChroma subsampling : 4:2:0\nBit depth : 8 bits\nScan type : Progressive\nCompression mode : Lossy\nBits/(Pixel*Frame) : 0.255\nStream size : 1.16 GiB (84%)\nWriting library : XviD 1.2.1 (UTC 2008-12-04)\n\nAudio\nID : 1\nFormat : AC-3\nFormat/Info : Audio Coding 3\nMode extension : CM (complete main)\nFormat settings, Endianness : Big\nCodec ID : 2000\nDuration : 1h 57mn\nBit rate mode : Constant\nBit rate : 256 Kbps\nChannel(s) : 2 channels\nChannel positions : Front: L R\nSampling rate : 48.0 KHz\nBit depth : 16 bits\nCompression mode : Lossy\nDelay relative to video : 18ms\nStream size : 216 MiB (15%)\nAlignment : Split accross interleaves\nInterleave, duration : 33 ms (1.00 video frame)\nInterleave, preload duratio : 500 ms\n\n\nScreens: &lt;a href=&quot;\nhttp://i5.imageban.ru/out/2015/02/14/3480012f85ca80a103a988388113e000.png&quot; rel=&quot;nofollow&quot; target=&quot;_NEW&quot;&gt;\nhttp://i5.imageban.ru/out/2015/02/14/3480012f85ca80a103a988388113e000.png&lt;/a&gt; &lt;a href=&quot;\nhttp://i5.imageban.ru/out/2015/02/14/4d29533909261a5872905f38660b8d37.png&quot; rel=&quot;nofollow&quot; target=&quot;_NEW&quot;&gt;\nhttp://i5.imageban.ru/out/2015/02/14/4d29533909261a5872905f38660b8d37.png&lt;/a&gt; &lt;a href=&quot;\nhttp://i1.imageban.ru/out/2015/02/14/e0c3fd77695951cb3a333805a03f0190.png&quot; rel=&quot;nofollow&quot; target=&quot;_NEW&quot;&gt;\nhttp://i1.imageban.ru/out/2015/02/14/e0c3fd77695951cb3a333805a03f0190.png&lt;/a&gt; &lt;a href=&quot;\nhttp://i5.imageban.ru/out/2015/02/14/686b34c7570d149a2ada9a1ed38dfadb.png&quot; rel=&quot;nofollow&quot; target=&quot;_NEW&quot;&gt;\nhttp://i5.imageban.ru/out/2015/02/14/686b34c7570d149a2ada9a1ed38dfadb.png&lt;/a&gt; &lt;a href=&quot;\nhttp://i2.imageban.ru/out/2015/02/14/d94a46e69c57800a007e9f3802bfcde9.png&quot; rel=&quot;nofollow&quot; target=&quot;_NEW&quot;&gt;\nhttp://i2.imageban.ru/out/2015/02/14/d94a46e69c57800a007e9f3802bfcde9.png&lt;/a&gt; &lt;a href=&quot;\nhttp://i5.imageban.ru/out/2015/02/14/8d47620290c2797a08b24416efbd3aa2.png&quot; rel=&quot;nofollow&quot; target=&quot;_NEW&quot;&gt;\nhttp://i5.imageban.ru/out/2015/02/14/8d47620290c2797a08b24416efbd3aa2.png&lt;/a&gt; &lt;a href=&quot;\nhttp://i4.imageban.ru/out/2015/02/14/cac865abc88eb92eaba4467f4153161c.png&quot; rel=&quot;nofollow&quot; target=&quot;_NEW&quot;&gt;\nhttp://i4.imageban.ru/out/2015/02/14/cac865abc88eb92eaba4467f4153161c.png&lt;/a&gt; &lt;a href=&quot;\nhttp://i4.imageban.ru/out/2015/02/14/36ffd8c07b34a0f7cd3ff9ae21124514.png&quot; rel=&quot;nofollow&quot; target=&quot;_NEW&quot;&gt;\nhttp://i4.imageban.ru/out/2015/02/14/36ffd8c07b34a0f7cd3ff9ae21124514.png&lt;/a&gt;","torrent":{"xt":"urn:btih:9b3c826daa8e67455764fcd8094e8869ac7e0da2","amp;dn":"Fifty+Shades+of+Grey+%282015%29+CamRip+%5BRUS%5D","amp;tr":["udp%3A%2F%2Ftracker.openbittorrent.com%3A80","udp%3A%2F%2Fopen.demonii.com%3A1337","udp%3A%2F%2Ftracker.coppersurfer.tk%3A6969","udp%3A%2F%2Fexodus.desync.com%3A6969"],"infoHash":"9b3c826daa8e67455764fcd8094e8869ac7e0da2","infoHashBuffer":{"type":"Buffer","data":[155,60,130,109,170,142,103,69,87,100,252,216,9,78,136,105,172,126,13,162]},"announce":[],"urlList":[]}}